<svg xmlns="http://www.w3.org/2000/svg" viewBox="0 0 24 24" fill="none" stroke="currentColor" stroke-width="1.7" stroke-linecap="round" stroke-linejoin="round">
  <path d="M4 17.5c1.3 0 1.3 1 2.6 1s1.3-1 2.6-1 1.3 1 2.6 1 1.3-1 2.6-1 1.3 1 2.6 1 1.3-1 2.6-1" />
  <path d="M7 14h10l-1.4 3H8.4L7 14Z" />
  <path d="M9 14l1.2-3h3.6L15 14" />
  <path d="M12 8.5V11" />
  <path d="M12 5.5h3" />
  <path d="M12 5.5v-2" />
  <path d="M5 11.5h3.5" />
  <path d="M4.5 9.5h5" />
  <path d="M6.5 9.5v2" />
  <path d="M17 6.5h2.5" />
  <path d="M18.25 5.25v2.5" />
</svg>
